<svg xmlns="http://www.w3.org/2000/svg" width="88.191" height="99.213" viewBox="0 0 88.191 99.213">
  <g id="family-7" transform="translate(-28.437)">
    <path id="Path_16" data-name="Path 16" d="M72.6,0A11.639,11.639,0,0,0,60.971,11.628a11.629,11.629,0,1,0,23.256,0A11.639,11.639,0,0,0,72.6,0Z" transform="translate(-26.229)"/>
    <path id="Path_17" data-name="Path 17" d="M354.227,11.628a11.628,11.628,0,1,0-23.256,0,11.629,11.629,0,1,0,23.256,0Z" transform="translate(-243.904)"/>
    <path id="Path_18" data-name="Path 18" d="M175.166,379.686c6.766,5.678,8.432,7.277,10.243,8.817a9.36,9.36,0,0,0,12.111-.04c3.153-2.73,6.571-5.88,9.644-8.574a11.461,11.461,0,0,1-6.728-15.978,20.765,20.765,0,0,0-19.211.013,11.569,11.569,0,0,1-6.058,15.761Z" transform="translate(-118.293 -291.493)"/>
    <circle id="Ellipse_1" data-name="Ellipse 1" cx="5.814" cy="5.814" r="5.814" transform="translate(66.719 46.705)"/>
    <path id="Path_19" data-name="Path 19" d="M72.532,136.591c-3.98-7.171-10.85-13.379-20.593-13.379-13.4,0-23.5,10.861-23.5,25.263,0,12.721,8.652,22.049,22.326,33.849a5.813,5.813,0,0,0,5.585-9.89c-12.48-11.338-16.283-16.615-16.283-22.526h5.814c0,3.662,3.572,8.293,13.374,17.288a26.585,26.585,0,0,1,26.56,0c9.8-9,13.374-13.626,13.374-17.289H105c0,5.91-3.8,11.187-16.283,22.526a5.785,5.785,0,0,0,7.07,9.127c14.54-13.247,20.841-21.464,20.841-33.087,0-14.4-10.1-25.263-23.5-25.263-9.746,0-16.613,6.209-20.593,13.38ZM84.16,151.852a11.628,11.628,0,1,1-11.628-11.628A11.639,11.639,0,0,1,84.16,151.852Z" transform="translate(0 -99.333)"/>
  </g>
</svg>
