<?xml version="1.0" encoding="UTF-8"?>
<svg version="1.1" xmlns="http://www.w3.org/2000/svg" width="89" height="100">
<path d="M0 0 C29.37 0 58.74 0 89 0 C89 33 89 66 89 100 C59.63 100 30.26 100 0 100 C0 67 0 34 0 0 Z " fill="#FBFBFB" transform="translate(0,0)"/>
<path d="M0 0 C2.25380796 2.17016148 4.17948311 4.45841563 6 7 C9.23979227 6.22823602 9.23979227 6.22823602 11.1875 3.1875 C14.82379619 -1.29043152 18.91164187 -3.5053079 24.609375 -4.41796875 C31.68294715 -4.78763283 37.25529216 -3.1651647 43 1 C48.74405481 6.68459254 51.00261939 12.84289451 51.3125 20.875 C51.04986998 30.51935814 47.32649369 36.91844558 41 44 C40.57058105 44.48388184 40.14116211 44.96776367 39.69873047 45.46630859 C38.30050603 47.02070984 36.87544732 48.54482975 35.4375 50.0625 C34.54933594 51.00222656 33.66117187 51.94195312 32.74609375 52.91015625 C30 55 30 55 26.78515625 55.43359375 C24 55 24 55 22 53 C21.46021393 49.65982002 21.17409958 47.18596972 23.17822266 44.30810547 C24.82374148 42.59460276 26.52996231 41.00787593 28.3125 39.4375 C33.6393855 34.61848657 37.58959997 30.33408017 39 23 C37.35 23 35.7 23 34 23 C33.7215625 23.99 33.7215625 23.99 33.4375 25 C30.63133131 30.85635204 25.65207631 35.53400674 21 40 C17.7 39.01 14.4 38.02 11 37 C11 36.34 11 35.68 11 35 C11.78375 34.79375 12.5675 34.5875 13.375 34.375 C16.23714632 33.21007272 16.23714632 33.21007272 17.3125 30.25 C18.66514277 24.6359953 18.66514277 24.6359953 16.984375 19.32421875 C14.81898516 16.59139242 13.33911272 15.11303757 10 14 C5.94242848 13.62429893 3.71970875 13.56817475 0.1875 15.6875 C-2.15873468 18.16780524 -3.21128929 19.68741503 -4 23 C-3.79643257 27.88561843 -2.32957892 30.46862842 1 34 C1.99 34.495 1.99 34.495 3 35 C3 35.66 3 36.32 3 37 C-0.3 37.99 -3.6 38.98 -7 40 C-8.44379943 38.61068357 -9.87977512 37.21323422 -11.3125 35.8125 C-12.11300781 35.03519531 -12.91351562 34.25789063 -13.73828125 33.45703125 C-16.8037625 30.12682796 -19 27.61757265 -19 23 C-20.98 23 -22.96 23 -25 23 C-22.45539314 32.1605847 -16.27393677 37.98065737 -9.4375 44.3125 C-7 47 -7 47 -6.4375 49.6875 C-7.10797563 52.44389979 -7.62377311 53.44316169 -10 55 C-13.35388299 55.47750199 -14.65371098 55.24201816 -17.46484375 53.27734375 C-20.00296359 50.87555262 -22.52702707 48.46899069 -25 46 C-25.58394531 45.42765625 -26.16789062 44.8553125 -26.76953125 44.265625 C-32.61171387 38.03807414 -37.30765387 29.96513276 -37.5625 21.3125 C-37.04401057 13.13450757 -34.81265529 6.81265529 -29 1 C-20.18413208 -5.65687986 -9.36854675 -6.19216328 0 0 Z " fill="#040404" transform="translate(37,28)"/>
<path d="M0 0 C29.37 0 58.74 0 89 0 C89 16.5 89 33 89 50 C88.67 50 88.34 50 88 50 C87.85304688 49.154375 87.70609375 48.30875 87.5546875 47.4375 C85.92666725 39.20383439 84.177399 32.5424309 76.99609375 27.62890625 C70.62438627 24.33476768 63.64004154 23.6479879 56.734375 25.66015625 C51.56928771 27.93713175 48.32148804 31.5210237 45 36 C42 35 42 35 39.875 32.1875 C36.14104945 27.56185977 31.27830897 25.44544962 25.44140625 24.65234375 C18.65120681 24.41463509 13.56048042 25.79679591 8.3125 30.3125 C4.62261346 34.60074652 1.67496398 38.26280618 1 44 C0.67 44 0.34 44 0 44 C0 29.48 0 14.96 0 0 Z " fill="#FAFAFA" transform="translate(0,0)"/>
<path d="M0 0 C1.2684375 -0.00773437 1.2684375 -0.00773437 2.5625 -0.015625 C5.24476356 0.27667295 6.83199485 0.62892342 9 2.25 C9.46875 4.45703125 9.46875 4.45703125 9.5 7.0625 C9.77286028 11.67450423 10.59126124 13.94455636 14 17.25 C14.66 17.91 15.32 18.57 16 19.25 C14.37744772 20.73185125 12.75188112 22.21040256 11.125 23.6875 C10.22007813 24.51121094 9.31515625 25.33492187 8.3828125 26.18359375 C5.490191 28.69211305 4.5775443 29.19106691 0.74609375 29.58203125 C-3.81644401 29.17763531 -5.4984098 27.89540063 -8.9375 24.9375 C-9.89527344 24.13699219 -10.85304688 23.33648437 -11.83984375 22.51171875 C-14 20.25 -14 20.25 -14 17.25 C-13.360625 16.569375 -12.72125 15.88875 -12.0625 15.1875 C-9.47464124 11.50176176 -9.52166136 8.86851626 -9.46875 4.45703125 C-9 2.25 -9 2.25 -7.28125 0.96484375 C-4.73882804 0.16816016 -2.66255828 -0.01623511 0 0 Z " fill="#060606" transform="translate(44,69.75)"/>
<path d="M0 0 C4.08989028 1.80716082 6.62509936 4.21775083 9 8 C9.71165129 12.77823009 8.64271592 15.99036205 6 20 C3.3125 21.375 3.3125 21.375 1 22 C1 22.66 1 23.32 1 24 C-1.64 24 -4.28 24 -7 24 C-7 23.34 -7 22.68 -7 22 C-7.598125 21.7525 -8.19625 21.505 -8.8125 21.25 C-12.39391745 19.20347574 -13.68297696 17.04164712 -14.875 13.125 C-15.0335431 9.16142245 -14.15743227 7.30806281 -12 4 C-8.18221246 -0.02988685 -5.4831736 -0.6853967 0 0 Z " fill="#F1F1F1" transform="translate(47,41)"/>
<path d="M0 0 C4.16636339 1.75913121 6.24086879 3.83363661 8 8 C8.83389634 14.56693369 8.83389634 14.56693369 6.9453125 17.8125 C4.5299514 20.78525212 2.64902084 22.7390039 -1.171875 23.34375 C-7.80748246 23.74590803 -7.80748246 23.74590803 -10.9921875 21.75390625 C-14.022219 18.61514156 -15.39886211 15.80407323 -15.6875 11.4375 C-15.36230674 6.55960116 -13.48076049 4.31500999 -10 1 C-6.80401935 -0.59799033 -3.47677244 -0.36773555 0 0 Z " fill="#060606" transform="translate(74,0)"/>
<path d="M0 0 C3.02508145 1.73602105 5.41790069 3.83580137 7 7 C7.43808718 11.28819956 7.44926618 14.94422448 5.75 18.9375 C3.43658568 21.66402402 1.34460874 22.77148868 -2.18359375 23.37109375 C-6.51006405 23.49856341 -8.3904377 23.46689879 -11.9375 20.75 C-14.46007246 17.38657005 -15.7639074 15.32802086 -16.5 11.1875 C-15.78762776 6.646127 -13.29145042 4.09532772 -10 1 C-6.77140153 -0.61429923 -3.49006347 -0.59570657 0 0 Z " fill="#050505" transform="translate(22,0)"/>
<path d="M0 0 C1.9375 1.125 1.9375 1.125 3 3 C2.77669287 6.64734979 2.61627165 8.38372835 0 11 C-3.13704316 11.333728 -5.16554166 11.52849028 -7.875 9.8125 C-9.40659584 7.34492892 -9.42822025 5.85480169 -9 3 C-6.73529086 -0.64869805 -4.03159541 -0.50394943 0 0 Z " fill="#0B0B0B" transform="translate(47,47)"/>
</svg>
