<svg xmlns="http://www.w3.org/2000/svg" width="85.664" height="102" viewBox="0 0 85.664 102">
  <g id="reading-book" transform="translate(-41)">
    <circle id="Ellipse_2" data-name="Ellipse 2" cx="17" cy="17" r="17" transform="translate(67)"/>
    <path id="Path_20" data-name="Path 20" d="M174.881,181.515a22.863,22.863,0,0,1-24.886,0,34.829,34.829,0,0,0-10.834,6.617l23.277,8.729,23.277-8.729A34.826,34.826,0,0,0,174.881,181.515Z" transform="translate(-78.605 -145.354)"/>
    <path id="Path_21" data-name="Path 21" d="M415.98,310h-1.992A2.988,2.988,0,0,0,411,312.988v7.969a2.988,2.988,0,0,0,2.988,2.988h1.992a6.973,6.973,0,0,0,0-13.945Z" transform="translate(-296.289 -248.242)"/>
    <path id="Path_22" data-name="Path 22" d="M82.286,232.136A2.988,2.988,0,0,0,81,234.592v6.653h1a8.975,8.975,0,0,1,8.965,8.965v7.969A8.975,8.975,0,0,1,82,267.144H81v6.3a2.988,2.988,0,0,0,1.939,2.8l29.936,11.226V242.233L85.038,231.794a2.986,2.986,0,0,0-2.751.342Z" transform="translate(-32.031 -185.464)"/>
    <path id="Path_23" data-name="Path 23" d="M292.914,258.179V250.21a8.975,8.975,0,0,1,8.965-8.965h1v-6.653a2.988,2.988,0,0,0-4.038-2.8L271,242.233v45.231l29.936-11.226a2.988,2.988,0,0,0,1.939-2.8v-6.3h-1A8.975,8.975,0,0,1,292.914,258.179Z" transform="translate(-184.18 -185.464)"/>
    <path id="Path_24" data-name="Path 24" d="M52.953,320.957v-7.969A2.988,2.988,0,0,0,49.965,310H47.973a6.973,6.973,0,0,0,0,13.945h1.992A2.988,2.988,0,0,0,52.953,320.957Z" transform="translate(0 -248.242)"/>
  </g>
</svg>
