<?xml version="1.0" encoding="UTF-8"?>
<svg version="1.1" xmlns="http://www.w3.org/2000/svg" width="109" height="82">
<path d="M0 0 C35.97 0 71.94 0 109 0 C109 27.06 109 54.12 109 82 C73.03 82 37.06 82 0 82 C0 54.94 0 27.88 0 0 Z " fill="#020202" transform="translate(0,0)"/>
<path d="M0 0 C1.65 1.32 3.3 2.64 5 4 C7.43057342 5.24406936 9.82755659 6.39661637 12.3203125 7.49609375 C13.369272 7.96922752 13.369272 7.96922752 14.43942261 8.45191956 C16.66496202 9.45392786 18.89480656 10.44590012 21.125 11.4375 C23.32607466 12.42503141 25.52624815 13.414547 27.72625732 14.40444946 C29.15950513 15.04688181 30.5944412 15.68556138 32.03106689 16.32040405 C35.10213963 17.67925446 38.12527055 19.0636939 41.12011719 20.58642578 C47.52273189 23.81732218 52.8405977 25.4431316 60 24 C65.44980821 22.02499538 70.57300725 19.53148565 75.75 16.9375 C77.11361023 16.27209067 78.4781914 15.60866728 79.84375 14.94726562 C82.55031709 13.63420304 85.25042521 12.30898453 87.94726562 10.97607422 C92.69322495 8.64301411 97.49586487 6.43276779 102.31756592 4.26097107 C104.95992765 3.05148051 106.92604142 2.07395858 109 0 C109 17.16 109 34.32 109 52 C73.03 52 37.06 52 0 52 C0 34.84 0 17.68 0 0 Z " fill="#FAFAFA" transform="translate(0,30)"/>
<path d="M0 0 C5.6244465 1.70127886 10.8577972 4.11955875 16.1875 6.5625 C17.97206089 7.3776068 19.75719291 8.19146467 21.54296875 9.00390625 C22.32696045 9.36299072 23.11095215 9.7220752 23.91870117 10.09204102 C30.40065575 12.91976994 36.67441504 13.10581798 43.39501953 10.87109375 C47.00021315 9.33667046 50.53351167 7.70219535 54.0625 6 C56.46703603 4.86845363 58.87626586 3.74727838 61.28515625 2.625 C62.33582275 2.12226562 63.38648926 1.61953125 64.46899414 1.1015625 C67 0 67 0 69 0 C69.08144943 2.70894767 69.14070614 5.41541263 69.1875 8.125 C69.21263672 8.88554688 69.23777344 9.64609375 69.26367188 10.4296875 C69.34123436 16.4278532 68.23907611 20.62098163 64 25.125 C50.99409966 33.25368771 35.46048896 34.64449355 20.6875 31.75 C12.02732054 29.68117935 6.18716502 27.38778048 1 20 C0.09761253 17.29283758 -0.11851302 15.76223232 -0.09765625 12.98828125 C-0.09443359 12.23095703 -0.09121094 11.47363281 -0.08789062 10.69335938 C-0.07951172 9.90767578 -0.07113281 9.12199219 -0.0625 8.3125 C-0.05798828 7.51521484 -0.05347656 6.71792969 -0.04882812 5.89648438 C-0.0370585 3.93095743 -0.01912348 1.96546915 0 0 Z " fill="#060606" transform="translate(20,49)"/>
<path d="M0 0 C16.83 0 33.66 0 51 0 C51 8.25 51 16.5 51 25 C48.36 23.35 45.72 21.7 43 20 C40.29149691 18.65137737 37.59924967 17.35765449 34.84375 16.1171875 C33.72389709 15.60576706 33.72389709 15.60576706 32.5814209 15.08401489 C31.01625792 14.37058577 29.44987531 13.6598267 27.88232422 12.95166016 C25.50324295 11.87646561 23.12832951 10.79246787 20.75390625 9.70703125 C19.22159084 9.00989622 17.68904628 8.31326459 16.15625 7.6171875 C15.45705444 7.29837616 14.75785889 6.97956482 14.03747559 6.65109253 C9.42110448 4.57008516 4.75707618 2.7363195 0 1 C0 0.67 0 0.34 0 0 Z " fill="#FBFBFB" transform="translate(58,0)"/>
<path d="M0 0 C16.5 0 33 0 50 0 C46.84588191 2.10274539 43.58935222 3.67476262 40.1640625 5.265625 C39.48886566 5.58150574 38.81366882 5.89738647 38.11801147 6.22283936 C35.95473395 7.23417961 33.78988289 8.24210155 31.625 9.25 C30.20692993 9.91254359 28.78896018 10.57530195 27.37109375 11.23828125 C25.9687981 11.89333215 24.56645465 12.54828073 23.1640625 13.203125 C22.47580383 13.52462524 21.78754517 13.84612549 21.07843018 14.17736816 C17.77054812 15.71962986 14.45816588 17.24984963 11.13183594 18.75195312 C9.96168945 19.28240234 8.79154297 19.81285156 7.5859375 20.359375 C6.55259277 20.82311523 5.51924805 21.28685547 4.45458984 21.76464844 C1.90276362 22.88807713 1.90276362 22.88807713 0 25 C0 16.75 0 8.5 0 0 Z " fill="#FCFCFC" transform="translate(0,0)"/>
<path d="M0 0 C0 7.92 0 15.84 0 24 C-1.65 24.33 -3.3 24.66 -5 25 C-7 23 -7 23 -7.22705078 20.84521484 C-7.21657715 19.97590332 -7.20610352 19.1065918 -7.1953125 18.2109375 C-7.18886719 17.26992188 -7.18242188 16.32890625 -7.17578125 15.359375 C-7.15902344 14.37453125 -7.14226562 13.3896875 -7.125 12.375 C-7.11597656 11.38242187 -7.10695313 10.38984375 -7.09765625 9.3671875 C-7.07404116 6.91121866 -7.04110799 4.45572832 -7 2 C-2.25 0 -2.25 0 0 0 Z " fill="#0F0F0F" transform="translate(102,43)"/>
</svg>
