<?xml version="1.0" standalone="no"?>
<!DOCTYPE svg PUBLIC "-//W3C//DTD SVG 20010904//EN"
 "http://www.w3.org/TR/2001/REC-SVG-20010904/DTD/svg10.dtd">
<svg version="1.0" xmlns="http://www.w3.org/2000/svg"
 width="160.000000pt" height="160.000000pt" viewBox="0 0 160.000000 160.000000"
 preserveAspectRatio="xMidYMid meet">

<g transform="translate(0.000000,160.000000) scale(0.100000,-0.100000)"
fill="#000000" stroke="none">
<path d="M743 1580 c-38 -23 -59 -83 -44 -123 15 -38 58 -67 102 -67 46 0 95
37 104 79 13 62 -43 131 -107 131 -13 0 -37 -9 -55 -20z m85 -46 c39 -27 19
-94 -28 -94 -47 0 -67 67 -28 94 12 9 25 16 28 16 3 0 16 -7 28 -16z"/>
<path d="M435 1355 c-132 -62 -181 -89 -183 -103 -2 -11 3 -22 10 -25 8 -2 99
34 203 82 150 69 190 92 190 107 0 12 -8 20 -20 21 -11 1 -101 -36 -200 -82z"/>
<path d="M943 1424 c-3 -8 -2 -19 3 -24 20 -19 379 -177 392 -173 7 3 12 14
10 25 -2 14 -51 41 -186 103 -100 47 -189 85 -197 85 -9 0 -18 -7 -22 -16z"/>
<path d="M744 1299 c-18 -5 -36 -19 -42 -34 -20 -43 -69 -66 -127 -59 -46 6
-54 3 -84 -22 -44 -37 -62 -79 -49 -115 15 -42 -6 -94 -48 -119 -39 -25 -47
-46 -42 -116 3 -42 7 -51 35 -69 45 -28 69 -84 54 -126 -8 -24 -8 -38 2 -58
11 -22 10 -33 -7 -72 l-19 -47 -35 34 c-32 31 -34 37 -24 60 54 118 -69 230
-186 170 -55 -28 -79 -109 -50 -170 10 -24 8 -29 -27 -63 -49 -48 -65 -88 -65
-169 0 -62 2 -68 35 -101 l34 -34 151 3 150 3 0 -60 c0 -42 6 -70 20 -92 31
-51 66 -52 236 -8 l144 38 144 -38 c170 -44 205 -43 236 8 14 22 20 50 20 92
l0 60 150 -3 151 -3 34 34 c33 33 35 39 35 101 0 81 -16 121 -65 169 -35 34
-37 39 -27 63 54 118 -69 230 -186 170 -55 -28 -79 -109 -50 -170 10 -23 8
-29 -24 -60 l-35 -34 -19 47 c-17 39 -18 50 -7 72 10 20 10 34 2 58 -15 42 9
98 54 126 29 18 32 26 35 77 3 66 -9 95 -44 108 -35 14 -59 74 -46 116 12 41
-4 81 -49 118 -30 25 -38 28 -84 22 -58 -7 -107 16 -127 59 -17 38 -87 54
-154 34z m118 -78 c25 -45 91 -75 149 -68 41 5 49 3 72 -21 22 -23 25 -33 20
-68 -8 -58 12 -108 58 -147 31 -27 39 -40 39 -68 -1 -27 -7 -38 -32 -54 -46
-29 -70 -80 -65 -136 l4 -46 -64 49 c-35 26 -68 48 -72 48 -5 0 2 21 15 47 74
145 -24 305 -186 305 -162 0 -260 -160 -186 -305 13 -26 20 -47 15 -47 -4 0
-37 -22 -72 -48 l-64 -49 4 46 c5 56 -19 107 -65 136 -25 16 -31 27 -32 54 0
28 8 41 39 68 46 39 66 89 58 147 -5 35 -2 45 20 68 23 24 31 26 72 21 58 -7
124 23 149 68 15 25 23 29 62 29 39 0 47 -4 62 -29z m18 -233 c72 -50 95 -116
65 -194 -48 -126 -221 -135 -283 -14 -55 107 19 230 138 230 32 0 57 -7 80
-22z m-585 -323 c14 -13 25 -36 25 -50 0 -32 -50 -85 -80 -85 -30 0 -80 53
-80 85 0 36 41 75 80 75 19 0 40 -9 55 -25z m1120 0 c14 -13 25 -36 25 -50 0
-32 -50 -85 -80 -85 -30 0 -80 53 -80 85 0 36 41 75 80 75 19 0 40 -9 55 -25z
m-692 -10 c47 -20 101 -19 158 2 46 16 47 16 91 -10 59 -34 115 -97 145 -164
22 -47 26 -73 30 -197 9 -238 2 -250 -130 -215 -109 29 -118 35 -72 43 68 13
115 37 130 67 22 42 19 93 -8 126 -13 15 -26 36 -30 46 -7 19 -43 23 -49 6 -3
-10 -329 -98 -365 -99 -9 0 -13 18 -13 56 0 52 -1 55 -22 52 -21 -3 -23 -9
-26 -63 -2 -36 -9 -66 -19 -77 -17 -20 -10 -38 16 -38 10 0 106 22 212 50 107
27 203 50 215 50 50 0 70 -75 26 -99 -9 -5 -128 -39 -264 -75 -274 -74 -282
-74 -294 -9 -4 20 -4 100 -1 179 4 123 8 150 29 196 31 66 79 123 137 160 52
32 57 33 104 13z m-388 -189 c58 -38 85 -161 45 -204 -19 -20 -30 -22 -140
-22 -110 0 -121 2 -140 22 -43 46 -17 160 47 204 39 26 147 26 188 0z m1119 1
c59 -39 86 -161 46 -205 -19 -20 -30 -22 -140 -22 -110 0 -121 2 -140 22 -43
46 -17 160 47 203 39 27 146 28 187 2z"/>
<path d="M893 503 c-18 -7 -16 -40 3 -47 20 -8 78 -8 98 0 21 8 21 40 0 48
-18 7 -83 7 -101 -1z"/>
<path d="M70 1273 c-81 -30 -90 -157 -14 -192 98 -44 187 45 143 142 -19 43
-82 67 -129 50z m70 -63 c25 -25 25 -52 0 -75 -38 -35 -96 6 -82 58 4 16 31
34 55 36 4 1 16 -8 27 -19z"/>
<path d="M1440 1264 c-40 -29 -49 -46 -50 -92 0 -108 144 -143 195 -47 22 40
14 93 -19 124 -33 31 -94 38 -126 15z m94 -54 c13 -12 10 -58 -4 -75 -26 -31
-90 -5 -90 37 0 29 37 60 63 52 12 -3 26 -10 31 -14z"/>
<path d="M130 999 c0 -37 41 -183 56 -199 12 -12 16 -12 29 0 13 13 11 27 -13
115 -24 86 -31 100 -50 103 -17 3 -22 -2 -22 -19z"/>
<path d="M1427 1013 c-3 -5 -17 -51 -31 -103 -23 -84 -24 -96 -11 -109 23 -23
39 1 64 95 27 102 27 124 2 124 -11 0 -22 -3 -24 -7z"/>
</g>
</svg>
