<?xml version="1.0" standalone="no"?>
<!DOCTYPE svg PUBLIC "-//W3C//DTD SVG 20010904//EN"
 "http://www.w3.org/TR/2001/REC-SVG-20010904/DTD/svg10.dtd">
<svg version="1.0" xmlns="http://www.w3.org/2000/svg"
 width="160.000000pt" height="160.000000pt" viewBox="0 0 160.000000 160.000000"
 preserveAspectRatio="xMidYMid meet">

<g transform="translate(0.000000,160.000000) scale(0.100000,-0.100000)"
fill="#000000" stroke="none">
<path d="M17 1582 c-15 -16 -17 -47 -17 -230 0 -252 -5 -242 125 -242 l80 0
111 -111 c118 -117 115 -116 209 -118 14 -1 -23 -43 -128 -149 -81 -82 -148
-156 -148 -165 -3 -33 -4 -36 -20 -49 -9 -7 -44 -60 -77 -118 -33 -58 -78
-137 -101 -176 -33 -57 -42 -83 -47 -142 -9 -93 4 -99 80 -42 48 37 68 63 154
213 55 95 101 178 103 185 3 8 56 65 119 128 l115 114 5 -268 5 -267 215 0
215 0 3 270 2 269 105 -104 c83 -83 102 -107 95 -120 -12 -23 -12 -418 1 -442
9 -16 25 -18 182 -18 121 0 177 4 185 12 9 9 12 73 12 228 0 229 -2 240 -47
240 -13 0 -23 4 -23 10 0 5 -12 13 -27 16 -16 4 -39 15 -52 26 -27 20 -53 23
-82 8 -17 -9 -19 -7 -19 16 0 22 -30 58 -147 176 -106 107 -142 148 -128 149
95 3 93 2 207 116 60 59 111 118 114 130 7 27 20 32 113 44 41 5 79 13 83 17
5 5 7 89 6 188 l-3 179 -41 3 c-33 2 -43 8 -47 24 -5 18 -11 20 -47 14 -47 -7
-110 -37 -129 -60 -12 -14 -17 -13 -45 9 -37 28 -107 55 -142 55 -16 0 -25 -7
-29 -22 -5 -19 -13 -23 -43 -23 l-37 0 -3 -187 -2 -186 52 -6 c29 -4 70 -9 92
-12 l38 -6 -53 -54 -53 -54 -305 0 -305 0 -87 85 c-47 47 -92 85 -98 85 -8 0
-11 51 -11 173 0 218 8 207 -152 207 -99 0 -117 -3 -131 -18z m233 -200 c0
-156 -1 -168 -20 -180 -11 -7 -20 -19 -20 -27 0 -12 -16 -15 -80 -15 l-80 0 0
194 c0 118 4 196 10 198 5 2 50 2 100 0 l90 -3 0 -167z m964 154 c71 -30 76
-41 76 -186 0 -71 -2 -130 -4 -130 -2 0 -27 16 -56 35 -29 19 -56 35 -61 35
-5 0 -9 59 -9 130 0 83 4 130 10 130 6 0 26 -6 44 -14z m256 -114 l0 -128 -42
-22 c-24 -12 -53 -29 -65 -38 l-23 -16 0 134 c0 149 1 152 70 182 61 26 60 28
60 -112z m-360 -37 c0 -111 2 -126 18 -132 31 -10 103 -45 100 -48 -2 -2 -38
2 -81 8 l-77 11 0 143 c0 136 1 143 20 143 19 0 20 -7 20 -125z m442 109 c2
-9 2 -74 0 -144 l-3 -127 -52 -7 c-29 -3 -63 -9 -77 -12 -24 -5 -24 -5 -5 11
11 8 37 21 57 27 l38 11 0 129 c0 120 1 128 19 128 11 0 21 -7 23 -16z m-1166
-404 l91 -90 323 0 323 0 94 92 c79 78 97 91 111 82 37 -23 25 -45 -74 -145
l-99 -99 -86 0 c-61 0 -89 -4 -92 -12 -2 -7 72 -91 164 -186 93 -95 169 -178
169 -185 0 -18 -21 -37 -39 -37 -9 0 -73 57 -143 127 -109 109 -129 125 -142
114 -14 -12 -16 -52 -16 -293 l0 -279 -72 3 -73 3 -3 108 c-2 98 -4 107 -22
107 -18 0 -20 -9 -22 -107 l-3 -108 -72 -3 -73 -3 0 279 c0 241 -2 281 -16
293 -13 11 -33 -5 -142 -114 -70 -70 -134 -127 -143 -127 -19 0 -39 19 -39 37
0 8 76 91 169 186 92 95 166 178 164 185 -3 8 -31 12 -91 12 l-87 0 -97 97
c-54 54 -98 105 -98 113 0 18 19 40 34 40 5 0 51 -40 102 -90z m1047 -610 c3
-12 14 -20 26 -20 12 0 21 -4 21 -10 0 -6 -32 -10 -75 -10 -43 0 -75 4 -75 10
0 6 11 10 24 10 16 0 27 7 31 20 3 11 15 20 25 20 9 0 20 -9 23 -20z m-1133
-27 c0 -16 -15 -16 -41 -2 -16 8 -18 13 -9 24 9 11 16 12 31 2 10 -6 19 -17
19 -24z m985 -35 c9 -21 17 -23 105 -26 115 -3 140 2 140 28 0 11 5 20 10 20
6 0 10 -73 10 -200 l0 -200 -145 0 -145 0 0 200 c0 110 3 200 8 200 4 0 12
-10 17 -22z m-1041 -11 c11 -8 17 -18 15 -23 -13 -30 -144 -254 -149 -254 -3
0 -14 6 -25 13 -17 13 -14 22 56 145 41 72 77 132 80 132 3 0 13 -6 23 -13z
m-182 -329 c-9 -9 -12 -7 -12 12 0 19 3 21 12 12 9 -9 9 -15 0 -24z"/>
<path d="M112 1203 c2 -13 13 -18 38 -18 25 0 36 5 38 18 3 14 -4 17 -38 17
-34 0 -41 -3 -38 -17z"/>
<path d="M722 1439 c-76 -38 -117 -128 -92 -203 26 -79 92 -128 170 -128 185
0 244 250 78 331 -56 27 -102 27 -156 0z m164 -62 c30 -28 37 -42 41 -83 6
-65 -24 -113 -85 -134 -37 -13 -47 -13 -84 0 -61 21 -91 69 -85 134 4 41 11
55 41 83 30 28 43 33 86 33 43 0 56 -5 86 -33z"/>
</g>
</svg>
