<?xml version="1.0" standalone="no"?>
<!DOCTYPE svg PUBLIC "-//W3C//DTD SVG 20010904//EN"
 "http://www.w3.org/TR/2001/REC-SVG-20010904/DTD/svg10.dtd">
<svg version="1.0" xmlns="http://www.w3.org/2000/svg"
 width="160.000000pt" height="160.000000pt" viewBox="0 0 160.000000 160.000000"
 preserveAspectRatio="xMidYMid meet">

<g transform="translate(0.000000,160.000000) scale(0.100000,-0.100000)"
fill="#000000" stroke="none">
<path d="M1301 1505 l-93 -94 4 -50 c1 -27 1 -48 -2 -46 -3 2 -35 23 -72 48
-218 147 -536 155 -768 20 -90 -52 -228 -191 -275 -276 -58 -105 -86 -205 -92
-327 -7 -141 13 -244 74 -370 39 -82 59 -108 142 -191 83 -83 109 -103 191
-142 126 -61 229 -81 370 -74 195 10 336 73 481 217 95 94 146 175 187 298 23
69 26 92 26 222 0 129 -3 154 -26 223 -23 67 -74 165 -123 232 -14 19 -13 20
36 17 l50 -4 94 93 c52 51 95 101 95 110 0 24 -30 39 -75 39 l-37 0 31 36 c26
28 30 39 20 50 -15 18 -13 19 -54 -17 l-35 -31 0 37 c0 45 -15 75 -39 75 -9 0
-59 -43 -110 -95z m36 -133 l-65 -65 -7 43 c-7 42 -7 43 61 112 l69 69 3 -47
c3 -47 2 -49 -61 -112z m-381 23 c81 -27 149 -64 217 -118 l38 -30 -51 -52
-52 -53 -47 35 c-98 76 -216 109 -359 100 -145 -8 -261 -64 -364 -176 -67 -71
-125 -185 -107 -207 19 -24 27 -17 65 58 65 129 178 223 318 263 45 13 84 16
156 13 83 -4 108 -10 166 -37 38 -18 84 -44 102 -58 l34 -25 -53 -54 c-47 -47
-55 -52 -69 -39 -8 8 -41 26 -73 40 -85 39 -194 38 -280 -3 -224 -105 -273
-384 -100 -558 56 -55 100 -79 181 -94 111 -22 221 13 305 97 118 117 137 294
47 429 l-28 42 53 52 53 52 25 -34 c14 -18 40 -64 58 -102 26 -57 33 -84 37
-160 8 -154 -29 -263 -125 -367 -100 -108 -215 -160 -353 -161 -151 0 -251 41
-356 146 -48 49 -79 91 -99 133 -29 63 -43 74 -63 50 -14 -16 35 -117 87 -180
172 -211 484 -263 707 -119 71 46 159 140 196 208 94 174 75 420 -44 575 l-36
47 53 52 53 52 40 -53 c99 -131 136 -247 137 -419 0 -112 -3 -135 -29 -214
-131 -400 -583 -590 -965 -405 -71 35 -101 58 -176 133 -74 74 -99 107 -132
176 -203 415 43 908 495 990 88 16 251 4 338 -25z m509 -65 c-60 -61 -74 -70
-106 -70 -19 0 -39 3 -43 7 -3 4 22 35 56 70 60 61 64 63 112 63 l50 0 -69
-70z m-630 -311 c17 -5 45 -18 64 -30 l34 -20 -53 -54 c-52 -53 -54 -54 -81
-39 -89 46 -209 -32 -209 -136 0 -44 27 -98 61 -123 62 -45 166 -28 211 35 27
39 35 107 15 146 -14 30 -14 30 38 82 l53 52 15 -23 c54 -82 65 -200 27 -286
-95 -215 -385 -242 -515 -48 -37 56 -58 146 -49 205 29 183 209 294 389 239z
m-62 -187 c15 -7 13 -12 -18 -42 -37 -36 -46 -70 -18 -70 9 0 34 16 54 36 l37
36 6 -29 c4 -16 2 -41 -3 -55 -12 -33 -57 -68 -87 -68 -105 0 -143 139 -50
184 34 17 51 18 79 8z"/>
</g>
</svg>
