<?xml version="1.0" standalone="no"?>
<!DOCTYPE svg PUBLIC "-//W3C//DTD SVG 20010904//EN"
 "http://www.w3.org/TR/2001/REC-SVG-20010904/DTD/svg10.dtd">
<svg version="1.0" xmlns="http://www.w3.org/2000/svg"
 width="160.000000pt" height="160.000000pt" viewBox="0 0 160.000000 160.000000"
 preserveAspectRatio="xMidYMid meet">

<g transform="translate(0.000000,160.000000) scale(0.100000,-0.100000)"
fill="#000000" stroke="none">
<path d="M437 1594 c-4 -4 -7 -45 -7 -90 l0 -83 -37 -3 c-26 -2 -38 -8 -38
-18 0 -13 64 -16 493 -20 476 -5 494 -6 508 -25 12 -16 14 -102 11 -555 -2
-294 -7 -547 -11 -562 -10 -35 12 -38 40 -7 15 17 20 40 22 110 l4 89 76 0
c83 0 108 9 99 34 -5 13 -23 16 -92 16 l-85 0 0 60 0 60 73 0 c46 0 80 5 92
13 33 25 8 37 -81 37 l-84 0 0 65 0 64 88 3 c69 2 87 6 87 18 0 12 -18 16 -87
18 l-88 3 0 64 0 64 87 3 c74 3 88 6 91 21 3 15 -6 17 -87 17 l-91 0 0 65 0
64 87 3 c74 3 88 6 91 21 3 15 -6 17 -87 17 l-91 0 0 88 c0 142 -27 170 -162
173 l-88 2 0 71 c0 47 -5 79 -14 92 -23 31 -35 6 -38 -81 l-3 -80 -60 0 -60 0
-3 80 c-3 86 -12 106 -37 85 -11 -9 -15 -32 -15 -91 l0 -79 -60 0 -60 0 0 85
c0 69 -3 87 -16 92 -25 9 -34 -16 -34 -99 l0 -78 -60 0 -59 0 -3 88 c-3 79 -5
87 -23 87 -18 0 -20 -8 -23 -87 l-3 -88 -59 0 -59 0 -3 87 c-2 70 -6 88 -18
91 -9 1 -19 0 -23 -4z"/>
<path d="M218 1391 c-33 -29 -33 -30 -36 -130 l-4 -100 -86 -3 c-69 -2 -87 -6
-87 -18 0 -12 18 -16 88 -18 l87 -3 0 -64 0 -65 -85 0 c-69 0 -87 -3 -92 -16
-9 -25 16 -34 100 -34 l77 0 0 -60 0 -60 -85 0 c-69 0 -87 -3 -92 -16 -10 -25
16 -33 99 -31 l78 2 0 -62 0 -62 -87 -3 c-80 -3 -88 -5 -88 -23 0 -18 8 -20
88 -23 l87 -3 0 -59 0 -59 -87 -3 c-80 -3 -88 -5 -88 -23 0 -18 8 -20 87 -23
l87 -3 3 -47 c3 -39 6 -47 23 -47 20 0 20 8 25 510 3 281 6 511 8 512 1 2 18
9 38 18 40 17 41 38 2 43 -18 2 -37 -6 -60 -27z"/>
<path d="M430 1180 c-11 -11 -22 -30 -25 -42 -2 -13 -4 -173 -2 -356 l2 -334
24 -19 c22 -18 43 -19 366 -19 189 0 351 3 360 6 41 16 45 47 45 389 0 342 -4
373 -45 389 -9 3 -172 6 -361 6 -329 0 -345 -1 -364 -20z m540 -150 l0 -119
-30 -16 c-16 -8 -37 -29 -45 -45 -15 -30 -16 -30 -100 -30 l-85 0 0 58 c0 53
2 59 34 84 42 34 53 75 32 117 -20 37 -44 51 -89 51 -37 0 -87 -32 -87 -56 0
-11 -17 -14 -75 -14 l-75 0 0 38 c0 21 3 42 7 45 3 4 120 7 260 7 l253 0 0
-120z m175 -155 l0 -270 -150 -3 c-82 -1 -154 -1 -160 1 -6 3 -9 35 -7 86 l4
81 29 0 c18 0 29 -5 29 -14 0 -28 59 -66 103 -66 66 1 107 44 107 114 0 37
-40 96 -66 96 -11 0 -14 24 -14 125 l0 126 63 -3 62 -3 0 -270z m-424 196 c20
-16 22 -23 14 -47 -9 -24 -16 -29 -45 -29 -29 0 -36 5 -45 29 -8 24 -6 31 14
47 13 10 27 19 31 19 4 0 18 -9 31 -19z m-97 -97 c35 -35 36 -38 36 -114 0
-88 2 -90 76 -90 l44 0 0 -160 0 -160 -80 0 -80 0 0 49 c0 41 4 51 20 56 11 3
29 18 40 32 46 59 6 143 -70 143 -79 0 -121 -97 -65 -150 21 -19 25 -33 25
-77 l0 -53 -41 0 c-83 0 -79 -14 -79 290 l0 270 69 0 c66 0 71 -2 105 -36z
m403 -122 c19 -12 31 -55 22 -79 -25 -67 -119 -45 -119 28 0 45 58 76 97 51z
m-382 -212 c0 -33 -2 -35 -35 -35 -29 0 -36 4 -38 23 -6 40 5 54 40 50 30 -3
33 -6 33 -38z m505 -125 c0 -34 -5 -47 -19 -55 -11 -5 -83 -10 -160 -10 l-141
0 0 55 0 55 160 0 160 0 0 -45z"/>
<path d="M190 262 c0 -25 40 -60 81 -72 19 -6 62 -10 96 -10 l63 0 0 -73 c0
-46 5 -80 13 -92 25 -33 37 -8 37 80 l0 83 38 3 c20 2 49 3 65 1 l27 -3 0 -85
c0 -68 3 -86 16 -91 25 -9 34 16 34 100 l0 77 60 0 60 0 0 -85 c0 -69 3 -87
16 -92 25 -9 34 16 34 99 0 76 0 77 28 80 15 2 41 1 59 -1 l32 -3 3 -87 c3
-78 5 -86 23 -86 18 0 20 8 23 88 l3 87 59 0 59 0 3 -87 c3 -80 5 -88 23 -88
18 0 20 8 23 88 l3 87 52 0 c55 0 95 19 83 38 -5 9 -144 12 -522 12 l-515 0
-23 25 c-27 29 -56 33 -56 7z"/>
</g>
</svg>
