<?xml version="1.0" standalone="no"?>
<!DOCTYPE svg PUBLIC "-//W3C//DTD SVG 20010904//EN"
 "http://www.w3.org/TR/2001/REC-SVG-20010904/DTD/svg10.dtd">
<svg version="1.0" xmlns="http://www.w3.org/2000/svg"
 width="160.000000pt" height="160.000000pt" viewBox="0 0 160.000000 160.000000"
 preserveAspectRatio="xMidYMid meet">

<g transform="translate(0.000000,160.000000) scale(0.100000,-0.100000)"
fill="#000000" stroke="none">
<path d="M609 1579 c-46 -27 -69 -66 -69 -119 0 -110 121 -177 211 -117 93 62
87 189 -12 239 -45 23 -86 22 -130 -3z m112 -39 c10 -6 26 -24 35 -41 46 -89
-69 -173 -140 -103 -69 70 18 190 105 144z"/>
<path d="M504 1299 c-30 -8 -52 -31 -186 -190 -50 -60 -58 -75 -77 -157 -15
-66 -19 -97 -12 -116 18 -46 81 -61 119 -28 12 10 32 54 47 104 20 69 35 97
69 134 l43 48 6 -155 c5 -119 2 -194 -13 -334 -23 -212 -25 -271 -7 -282 7 -5
-17 -10 -58 -13 l-70 -5 -5 -123 c-3 -67 -8 -122 -12 -122 -302 2 -348 0 -348
-19 0 -10 7 -22 16 -25 20 -8 358 -8 378 0 13 5 16 26 16 125 l0 119 188 2
187 3 5 114 5 114 173 -2 c103 0 181 3 193 9 17 10 19 22 19 125 l0 115 208 2
c199 3 207 4 207 23 0 19 -7 20 -230 20 l-230 0 -3 -122 -3 -123 -44 0 -45 0
0 121 c0 176 -21 211 -147 244 -38 10 -72 21 -76 25 -4 4 -7 44 -5 89 l3 82
40 -29 c22 -17 59 -35 82 -42 38 -12 50 -10 127 14 89 27 116 50 116 93 0 32
-34 63 -68 63 -16 0 -49 -7 -75 -16 -53 -18 -64 -14 -137 46 -76 63 -71 62
-290 74 -41 2 -89 0 -106 -5z m251 -55 c43 -4 62 -14 119 -60 81 -64 104 -72
165 -54 63 18 85 18 88 0 3 -10 -16 -22 -59 -38 -93 -33 -115 -30 -202 30 -53
35 -80 48 -87 41 -6 -6 -13 -69 -16 -141 -7 -150 -15 -138 107 -167 114 -28
120 -37 120 -190 l0 -125 -29 0 -29 0 -4 90 c-6 118 -9 122 -163 155 -151 32
-152 32 -175 58 -18 19 -20 35 -20 173 0 203 -3 206 -110 93 -74 -78 -82 -91
-111 -176 -24 -73 -35 -93 -49 -93 -30 0 -31 13 -7 103 21 81 26 88 115 191
52 59 103 111 115 115 21 8 126 6 232 -5z m-96 -504 c0 -8 -15 -100 -32 -204
-25 -145 -36 -192 -49 -200 -13 -8 -21 -7 -33 5 -14 14 -14 34 5 215 11 109
20 206 20 215 0 15 3 15 45 0 27 -9 45 -22 44 -31z m180 -21 l31 -11 0 -84 0
-83 -62 -3 -63 -3 -3 -112 -3 -113 -55 0 c-50 0 -54 2 -45 18 8 16 28 129 67
376 l6 38 48 -6 c27 -4 62 -11 79 -17z"/>
<path d="M1327 622 c-20 -21 -37 -45 -37 -54 0 -22 26 -30 40 -12 7 8 16 14
21 14 5 0 9 -126 9 -279 0 -157 4 -282 9 -285 5 -4 16 -3 25 0 14 5 16 39 16
285 l0 279 24 -15 c21 -14 24 -14 36 0 11 14 7 22 -30 60 -24 25 -51 45 -60
45 -9 0 -33 -17 -53 -38z"/>
<path d="M930 395 c-37 -38 -41 -46 -30 -60 12 -14 15 -14 36 0 l24 15 2 -172
c3 -165 4 -173 23 -173 19 0 20 8 23 173 1 94 6 172 11 172 5 0 14 -6 21 -14
14 -18 40 -10 40 13 0 21 -70 91 -91 91 -8 0 -35 -20 -59 -45z"/>
<path d="M567 172 c-20 -21 -37 -46 -37 -55 0 -20 30 -23 48 -5 9 9 12 5 13
-17 1 -17 1 -34 0 -39 -5 -25 11 -56 29 -56 20 0 34 30 30 66 -5 43 0 58 12
46 16 -16 45 -15 51 2 6 16 -72 96 -94 96 -8 0 -32 -17 -52 -38z"/>
</g>
</svg>
