<?xml version="1.0" encoding="UTF-8"?>
<svg version="1.1" xmlns="http://www.w3.org/2000/svg" width="86" height="102">
<path d="M0 0 C28.38 0 56.76 0 86 0 C86 33.66 86 67.32 86 102 C57.62 102 29.24 102 0 102 C0 68.34 0 34.68 0 0 Z " fill="#FBFBFB" transform="translate(0,0)"/>
<path d="M0 0 C4.18033215 0.48081947 7.87486656 1.54861333 11.80078125 3.03125 C12.85974609 3.42957031 13.91871094 3.82789063 15.00976562 4.23828125 C16.09966797 4.65464844 17.18957031 5.07101563 18.3125 5.5 C19.42173828 5.91636719 20.53097656 6.33273438 21.67382812 6.76171875 C29.85956743 9.85956743 29.85956743 9.85956743 31 11 C31.0928726 12.41225046 31.11746772 13.82908934 31.11352539 15.24438477 C31.11344986 16.14524307 31.11337433 17.04610138 31.11329651 17.97425842 C31.10813522 18.95341721 31.10297394 19.93257599 31.09765625 20.94140625 C31.0962413 21.93881332 31.09482635 22.9362204 31.09336853 23.96385193 C31.08775114 27.16343124 31.07519571 30.36294169 31.0625 33.5625 C31.05748724 35.72591045 31.05292395 37.88932199 31.04882812 40.05273438 C31.03777607 45.36851325 31.02102104 50.68425171 31 56 C20.52453843 52.92153433 20.52453843 52.92153433 15.46484375 50.9921875 C14.09875977 50.47205078 14.09875977 50.47205078 12.70507812 49.94140625 C11.33512695 49.41353516 11.33512695 49.41353516 9.9375 48.875 C8.98939453 48.51535156 8.04128906 48.15570313 7.06445312 47.78515625 C0.13109756 45.13109756 0.13109756 45.13109756 -1 44 C-1.14115161 41.32941149 -1.04247107 38.67567762 -1 36 C-0.43410156 35.74605469 0.13179687 35.49210937 0.71484375 35.23046875 C1.44832031 34.88628906 2.18179687 34.54210937 2.9375 34.1875 C3.66839844 33.85105469 4.39929688 33.51460937 5.15234375 33.16796875 C7.33029489 32.06399866 7.33029489 32.06399866 8 29 C8.8978174 20.416941 8.8978174 20.416941 5.75 12.75 C3.30035867 11.19113734 1.76156066 10.59007706 -1 10 C-1.02689216 8.52093108 -1.04634621 7.04172517 -1.0625 5.5625 C-1.07410156 4.73878906 -1.08570313 3.91507813 -1.09765625 3.06640625 C-1 1 -1 1 0 0 Z " fill="#050505" transform="translate(9,46)"/>
<path d="M0 0 C1 1 1 1 1.09765625 2.84765625 C1.06510417 4.8984375 1.03255208 6.94921875 1 9 C-0.11375 9.268125 -1.2275 9.53625 -2.375 9.8125 C-6.21840951 10.65809019 -6.21840951 10.65809019 -8 14 C-8.22150947 16.52866005 -8.32461127 18.91108888 -8.3125 21.4375 C-8.32925781 22.75621094 -8.34601563 24.07492188 -8.36328125 25.43359375 C-7.99137645 29.08465919 -7.64610007 30.5200504 -5 33 C-1.89802603 33.80946422 -1.89802603 33.80946422 1 34 C1.390625 39.95703125 1.390625 39.95703125 1 42 C-2.08566009 44.78258359 -5.38900993 46.06576124 -9.26171875 47.48046875 C-10.46248047 47.92197266 -11.66324219 48.36347656 -12.90039062 48.81835938 C-13.52147705 49.04289795 -14.14256348 49.26743652 -14.7824707 49.4987793 C-16.69404192 50.18986508 -18.60212707 50.88993679 -20.50976562 51.59179688 C-29.83087491 55 -29.83087491 55 -31 55 C-31 39.82 -31 24.64 -31 9 C-26.6275 7.329375 -22.255 5.65875 -17.75 3.9375 C-16.37682617 3.40632568 -15.00365234 2.87515137 -13.58886719 2.32788086 C-12.50250977 1.91932861 -11.41615234 1.51077637 -10.296875 1.08984375 C-9.18666992 0.66566162 -8.07646484 0.24147949 -6.93261719 -0.19555664 C-4.02145832 -0.99411379 -2.74554472 -1.14022842 0 0 Z " fill="#040404" transform="translate(77,47)"/>
<path d="M0 0 C4.3966905 2.50611359 6.94280288 5.79462501 8.75 10.5 C9.83490823 16.0013488 8.90794624 20.85149259 6.1328125 25.703125 C3.00844492 29.76303767 -0.68755848 32.00378117 -5.7109375 32.9765625 C-11.11692518 33.29260486 -15.14896154 32.28435161 -19.5546875 29.109375 C-23.69047579 25.18323496 -25.4332468 20.64017586 -25.8125 15 C-25.54884402 9.91143951 -23.61097809 6.26940074 -20.25 2.5 C-14.35364464 -2.69405993 -7.08499972 -2.98877578 0 0 Z " fill="#040404" transform="translate(51.25,1.5)"/>
<path d="M0 0 C6.01899993 2.1652508 11.619237 1.1818127 17.3671875 -1.1484375 C22.97159771 -0.94464077 26.02942344 0.57178967 30.3671875 3.8515625 C27.25108624 6.96766376 23.31936145 8.00242368 19.2421875 9.5390625 C18.41203125 9.87228516 17.581875 10.20550781 16.7265625 10.54882812 C7.72902896 13.9405316 1.55761031 12.25718494 -7.1328125 8.7890625 C-7.85984375 8.50740234 -8.586875 8.22574219 -9.3359375 7.93554688 C-11.10472505 7.24897802 -12.86924291 6.55142568 -14.6328125 5.8515625 C-14.6328125 2.8515625 -14.6328125 2.8515625 -13.19921875 1.359375 C-8.04570563 -2.19685043 -5.6981377 -2.42515895 0 0 Z " fill="#070707" transform="translate(35.6328125,38.1484375)"/>
<path d="M0 0 C1.73849628 1.73849628 1.17216296 4.0786637 1.1875 6.4375 C1.20167969 7.42621094 1.21585938 8.41492188 1.23046875 9.43359375 C1 12 1 12 -1 14 C-4.4375 13.9375 -4.4375 13.9375 -8 13 C-10.61721762 10.13741823 -11.02696888 8.68770638 -10.875 4.8125 C-9.11731961 -0.83718697 -5.16498118 -0.2869434 0 0 Z " fill="#0B0B0B" transform="translate(11,62)"/>
<path d="M0 0 C3.1875 0.25 3.1875 0.25 5.5625 1.3125 C7.1875 3.25 7.1875 3.25 7.625 6.75 C7.1875 10.25 7.1875 10.25 6.125 12.125 C3.2352386 13.80292597 0.48271825 14.00590976 -2.8125 14.25 C-3.8125 13.25 -3.8125 13.25 -3.9453125 10.5625 C-3.94273438 9.469375 -3.94015625 8.37625 -3.9375 7.25 C-3.94007812 6.156875 -3.94265625 5.06375 -3.9453125 3.9375 C-3.76309657 0.25030707 -3.68872393 0.32788657 0 0 Z " fill="#060606" transform="translate(77.8125,61.75)"/>
</svg>
