<svg xmlns="http://www.w3.org/2000/svg" width="80" height="80" viewBox="0 0 80 80">
  <g id="teach" transform="translate(-2 -2)">
    <path id="Path_13" data-name="Path 13" d="M10,2A4,4,0,0,0,6,6V55.333H3.333a1.333,1.333,0,0,0,0,2.667H14a14.671,14.671,0,0,1,9.093-13.57,10.667,10.667,0,1,1,11.147,0,14.7,14.7,0,0,1,5.192,3.609l7.683-3.145a7.3,7.3,0,0,1,4.331-.381L62.481,24.1a4,4,0,0,1,7.038,3.8L57.168,50.751A7.34,7.34,0,0,1,53.615,58H80.667a1.333,1.333,0,1,0,0-2.667H78V6a4,4,0,0,0-4-4Z"/>
    <path id="Path_14" data-name="Path 14" d="M62.967,19.16a1.333,1.333,0,0,1,.539,1.807l-12.812,23.7a4.667,4.667,0,0,1-2.7,5.664L37,54.833V75a1.333,1.333,0,0,1-1.333,1.333H14.333A1.333,1.333,0,0,1,13,75V52.333A12,12,0,0,1,34.931,45.6l9.527-3.9a4.664,4.664,0,0,1,4.517.547L61.16,19.7a1.333,1.333,0,0,1,1.807-.539Z" transform="translate(3.667 5.667)"/>
    <path id="Path_15" data-name="Path 15" d="M24,21a8,8,0,1,0,8,8A8,8,0,0,0,24,21Z" transform="translate(4.667 6.333)"/>
  </g>
</svg>
