<?xml version="1.0" encoding="UTF-8"?>
<svg version="1.1" xmlns="http://www.w3.org/2000/svg" width="160" height="160">
<path d="M0 0 C52.8 0 105.6 0 160 0 C160 52.8 160 105.6 160 160 C107.2 160 54.4 160 0 160 C0 107.2 0 54.4 0 0 Z " fill="#000000" transform="translate(0,0)"/>
<path d="M0 0 C2.875 2.125 2.875 2.125 5 5 C5.49649065 9.68535279 4.58669637 12.49425314 2.32421875 16.5703125 C1.74833008 17.62226807 1.17244141 18.67422363 0.57910156 19.75805664 C-0.04512695 20.86914795 -0.66935547 21.98023926 -1.3125 23.125 C-1.94317383 24.27411865 -2.57384766 25.4232373 -3.22363281 26.60717773 C-6.20738308 32.04324991 -9.24861783 37.44632065 -12.30859375 42.83984375 C-12.80770264 43.72720215 -13.30681152 44.61456055 -13.82104492 45.52880859 C-14.74351915 47.16445485 -15.67656278 48.7942058 -16.62231445 50.41650391 C-19.14274708 54.87517105 -20.63471431 58.7661995 -21.33886719 63.85717773 C-22 66 -22 66 -26 71 C-7.85 71 10.3 71 29 71 C29 87.17 29 103.34 29 120 C-23.8 120 -76.6 120 -131 120 C-131 103.83 -131 87.66 -131 71 C-123.08 71.33 -115.16 71.66 -107 72 C-106.67 69.03 -106.34 66.06 -106 63 C-103.09980107 54.44917873 -97.66960162 49.37465141 -90 45 C-90.72316406 44.23816406 -90.72316406 44.23816406 -91.4609375 43.4609375 C-97.23221057 37.17142766 -99.60082262 32.22136349 -99.3671875 23.58984375 C-98.574008 17.99539684 -96.10159743 13.78000067 -91.8046875 10.140625 C-85.75198723 5.94568422 -80.47766081 4.06018471 -73 5 C-65.45622407 7.25594823 -60.40544569 12.81661618 -56.5625 19.5 C-54.87473772 27.0011657 -56.21962222 32.44170884 -60 39 C-61.56120374 41.15384198 -63.19069935 43.0399243 -65 45 C-62.54198808 47.4923417 -60.17522082 49.49189835 -57 51 C-53.34167269 50.76104238 -50.3199744 49.49916742 -47 48 C-40.32284674 45.00679337 -40.32284674 45.00679337 -36.1015625 44.91796875 C-33.51531199 44.61747673 -32.37099407 44.38406163 -30.54443359 42.49316406 C-29.20879146 40.36185402 -28.08994774 38.20435941 -27 35.9375 C-26.58266602 35.13127197 -26.16533203 34.32504395 -25.73535156 33.49438477 C-24.45864193 31.01073239 -23.22497538 28.50951196 -22 26 C-21.26654438 24.52037723 -20.53221494 23.0411872 -19.796875 21.5625 C-18.78467818 19.52433175 -17.77367687 17.48573941 -16.77099609 15.44287109 C-8.61995398 -1.01411223 -8.61995398 -1.01411223 0 0 Z " fill="#FBFBFB" transform="translate(131,40)"/>
<path d="M0 0 C1.32 0.66 2.64 1.32 4 2 C2.36924858 7.84754653 -0.50540755 12.85489014 -3.4375 18.125 C-3.96448486 19.0855127 -4.49146973 20.04602539 -5.03442383 21.03564453 C-7.71681352 25.91729782 -10.43554629 30.77551997 -13.203125 35.609375 C-13.95638062 36.9394458 -13.95638062 36.9394458 -14.72485352 38.29638672 C-15.67485267 39.97121414 -16.63570756 41.63994705 -17.60913086 43.30126953 C-19.71188998 47.02198824 -21.18788627 49.95985349 -21.48828125 54.2578125 C-22 58 -22 58 -23.85546875 60.69921875 C-28.33867023 63.97947425 -33.14967022 65.82730442 -38.3125 67.8125 C-39.33923828 68.21919922 -40.36597656 68.62589844 -41.42382812 69.04492188 C-43.94489909 70.04162435 -46.47003269 71.02615201 -49 72 C-49.03758423 73.90060181 -49.03758423 73.90060181 -49.07592773 75.83959961 C-49.16981996 80.52297779 -49.27008435 85.2062013 -49.37231445 89.8894043 C-49.41573241 91.91964104 -49.45740226 93.94991592 -49.49731445 95.98022461 C-49.55485146 98.89188151 -49.61859278 101.80334514 -49.68359375 104.71484375 C-49.70866249 106.08514992 -49.70866249 106.08514992 -49.73423767 107.48313904 C-49.88612829 113.88612829 -49.88612829 113.88612829 -51 115 C-52.44289787 115.09295815 -53.89029785 115.11746513 -55.33618164 115.11352539 C-56.71750023 115.11341209 -56.71750023 115.11341209 -58.12672424 115.11329651 C-59.12775681 115.10813522 -60.12878937 115.10297394 -61.16015625 115.09765625 C-62.68956093 115.09553383 -62.68956093 115.09553383 -64.24986267 115.09336853 C-67.52077107 115.08775097 -70.79161213 115.0751955 -74.0625 115.0625 C-76.27408756 115.05748726 -78.48567618 115.05292396 -80.69726562 115.04882812 C-86.13153357 115.03777584 -91.56576197 115.02102063 -97 115 C-98.21429655 112.5714069 -98.15280723 110.96467945 -98.19287109 108.25 C-98.20893402 107.26136963 -98.22499695 106.27273926 -98.24154663 105.25415039 C-98.28612136 100.70573617 -98.32710933 96.15746881 -98.35009766 91.60888672 C-98.36660107 89.21718579 -98.39381592 86.82553302 -98.43212891 84.43408203 C-98.48722203 80.97662895 -98.50882755 77.52033448 -98.5234375 74.0625 C-98.54610687 73.00482422 -98.56877625 71.94714844 -98.59213257 70.85742188 C-98.5695943 62.83985185 -96.76600642 56.13427014 -91.25888062 50.08862305 C-85.30547854 44.52785928 -78.94603301 42.36219017 -70.85546875 42.57421875 C-64.91172655 43.46049495 -58.90418123 46.33250129 -55 51 C-55 51.66 -55 52.32 -55 53 C-53.91460937 52.59007812 -52.82921875 52.18015625 -51.7109375 51.7578125 C-50.26564731 51.21348243 -48.82033356 50.66921491 -47.375 50.125 C-46.66214844 49.85558594 -45.94929688 49.58617187 -45.21484375 49.30859375 C-43.14629721 48.53051661 -41.07368458 47.76425847 -39 47 C-37.9275 46.5978125 -36.855 46.195625 -35.75 45.78125 C-31.78881124 44.65591228 -29.02196342 45.30655803 -25 46 C-24.61279785 44.96975708 -24.61279785 44.96975708 -24.21777344 43.91870117 C-22.83548986 40.60570997 -21.20849144 37.46155494 -19.515625 34.30078125 C-19.00850983 33.34814644 -19.00850983 33.34814644 -18.4911499 32.37626648 C-17.77630026 31.03507563 -17.06014867 29.69457799 -16.34277344 28.35473633 C-15.26371589 26.33813302 -14.19016106 24.3186737 -13.1171875 22.29882812 C-2.63929031 2.63929031 -2.63929031 2.63929031 0 0 Z " fill="#020202" transform="translate(127,45)"/>
<path d="M0 0 C4.62 0 9.24 0 14 0 C14 35.64 14 71.28 14 108 C11.36 107.67 8.72 107.34 6 107 C5.98786972 105.0931971 5.98786972 105.0931971 5.97549438 103.14787292 C5.89810464 91.18449071 5.8103836 79.22122323 5.71247292 67.25799084 C5.66246672 61.10715693 5.61613705 54.95634057 5.578125 48.80541992 C5.54132686 42.87258908 5.49498183 36.93990348 5.44193649 31.00719643 C5.42336342 28.74054823 5.40826631 26.47386886 5.39665604 24.2071743 C5.37984348 21.03924979 5.35082041 17.87166003 5.31884766 14.70385742 C5.31668747 13.76086792 5.31452728 12.81787842 5.31230164 11.84631348 C5.30113815 10.98394577 5.28997467 10.12157806 5.2784729 9.233078 C5.27294214 8.48366031 5.26741138 7.73424261 5.26171303 6.96211529 C5.1035545 4.67885625 5.1035545 4.67885625 3 2 C2.01 1.34 1.02 0.68 0 0 Z " fill="#FEFEFE" transform="translate(146,0)"/>
<path d="M0 0 C4.29 0 8.58 0 13 0 C11.68 1.65 10.36 3.3 9 5 C8.40943569 7.19853733 8.40943569 7.19853733 8.48101807 9.47358704 C8.46710526 10.33870407 8.45319244 11.20382111 8.43885803 12.09515381 C8.4438884 13.03095276 8.44891876 13.96675171 8.45410156 14.9309082 C8.44376389 15.92650253 8.43342621 16.92209686 8.42277527 17.94786072 C8.39332288 21.23233218 8.39184754 24.51618805 8.390625 27.80078125 C8.37564506 30.08051226 8.35891831 32.36023241 8.34051514 34.63993835 C8.29680891 40.63551326 8.2768351 46.63094176 8.26177979 52.62664795 C8.24222065 58.74662952 8.20024924 64.86645272 8.16015625 70.98632812 C8.08481852 82.9908366 8.03454848 94.99530969 8 107 C5.36 107.33 2.72 107.66 0 108 C0 72.36 0 36.72 0 0 Z " fill="#FEFEFE" transform="translate(0,0)"/>
<path d="M0 0 C4.32380898 2.26038604 6.8950928 4.9301192 8.92578125 9.31640625 C9.77691603 15.25500575 9.40686999 20.27482945 5.92578125 25.31640625 C2.31299908 28.73904199 -1.05606298 31.10785806 -6.109375 31.45703125 C-12.00012144 31.25494732 -15.30492949 29.2249357 -19.4765625 25.14453125 C-22.40952925 21.7884715 -22.96357244 19.31222302 -23.44921875 14.94140625 C-22.85829042 9.22909905 -20.6751252 5.76484542 -16.44921875 1.94140625 C-11.4642573 -1.46935685 -5.79520588 -1.90990778 0 0 Z " fill="#040404" transform="translate(60.07421875,51.68359375)"/>
</svg>
